<svg width="250" height="190" viewBox="0 0 250 190" fill="none" xmlns="http://www.w3.org/2000/svg">
<path d="M0 72.0771C0 70.7653 0.580079 69.5203 1.5854 68.6744L81.9425 1.05795C84.8452 -1.38445 89.2857 0.673238 89.2857 4.46067V116.796C89.2857 118.095 88.7168 119.329 87.7281 120.175L7.37091 188.918C4.47539 191.395 0 189.344 0 185.539V72.0771Z" fill="white"/>
<path d="M80.3571 72.0771C80.3571 70.7653 80.9372 69.5203 81.9425 68.6744L162.3 1.05795C165.202 -1.38445 169.643 0.673238 169.643 4.46067V116.796C169.643 118.095 169.074 119.329 168.085 120.175L87.7281 188.918C84.8325 191.395 80.3571 189.344 80.3571 185.539V72.0771Z" fill="white"/>
<path d="M160.714 72.0771C160.714 70.7653 161.294 69.5203 162.3 68.6744L242.657 1.05795C245.559 -1.38445 250 0.673238 250 4.46067V116.796C250 118.095 249.431 119.329 248.442 120.175L168.085 188.918C165.19 191.395 160.714 189.344 160.714 185.539V72.0771Z" fill="white"/>
</svg>
