<?xml version="1.0" encoding="UTF-8" standalone="no"?>
<svg
   width="1500"
   height="200"
   viewBox="0 0 1500 200"
   style="background-color: white"
   version="1.1"
   id="svg3"
   sodipodi:docname="logo-primary-shades-with-text.svg"
   inkscape:version="1.4 (e7c3feb1, 2024-10-09)"
   xmlns:inkscape="http://www.inkscape.org/namespaces/inkscape"
   xmlns:sodipodi="http://sodipodi.sourceforge.net/DTD/sodipodi-0.dtd"
   xmlns:xlink="http://www.w3.org/1999/xlink"
   xmlns="http://www.w3.org/2000/svg"
   xmlns:svg="http://www.w3.org/2000/svg">
  <defs
     id="defs3">
    <linearGradient
       id="linearGradient6"
       inkscape:collect="always">
      <stop
         style="stop-color:#655fa7;stop-opacity:1;"
         offset="0"
         id="stop7" />
      <stop
         style="stop-color:#655fa7;stop-opacity:0;"
         offset="1"
         id="stop8" />
    </linearGradient>
    <linearGradient
       inkscape:collect="always"
       xlink:href="#linearGradient6"
       id="linearGradient8"
       x1="278.54938"
       y1="92.534317"
       x2="1764.354"
       y2="92.534317"
       gradientUnits="userSpaceOnUse" />
  </defs>
  <sodipodi:namedview
     id="namedview3"
     pagecolor="#74ffff"
     bordercolor="#000000"
     borderopacity="0.25"
     inkscape:showpageshadow="2"
     inkscape:pageopacity="0.0"
     inkscape:pagecheckerboard="0"
     inkscape:deskcolor="#d1d1d1"
     inkscape:zoom="0.76649518"
     inkscape:cx="549.90561"
     inkscape:cy="123.94077"
     inkscape:window-width="2176"
     inkscape:window-height="1061"
     inkscape:window-x="2076"
     inkscape:window-y="169"
     inkscape:window-maximized="0"
     inkscape:current-layer="svg3" />
  <path
     d="m 20.874234,77.295659 c 0,-1.3118 0.580079,-2.5568 1.5854,-3.4027 L 102.81673,6.2765086 c 2.9027,-2.4424 7.3432,-0.384712 7.3432,3.40272 V 122.01456 c 0,1.299 -0.5689,2.533 -1.5576,3.379 l -80.357186,68.743 c -2.89552,2.477 -7.37091,0.426 -7.37091,-3.379 z"
     fill="#3d3967"
     id="path1"
     sodipodi:nodetypes="sccssccss" />
  <path
     d="m 101.23133,77.295659 c 0,-1.3118 0.5801,-2.5568 1.5854,-3.4027 L 183.17424,6.2765086 c 2.902,-2.4424 7.343,-0.384712 7.343,3.40272 V 122.01456 c 0,1.299 -0.569,2.533 -1.558,3.379 l -80.35691,68.743 c -2.8956,2.477 -7.371,0.426 -7.371,-3.379 z"
     fill="#4d487f"
     id="path2" />
  <path
     d="m 181.58824,77.295659 c 0,-1.3118 0.58,-2.5568 1.586,-3.4027 l 80.357,-67.6164504 c 2.902,-2.4424 7.343,-0.384712 7.343,3.40272 V 122.01456 c 0,1.299 -0.569,2.533 -1.558,3.379 l -80.357,68.743 c -2.895,2.477 -7.371,0.426 -7.371,-3.379 z"
     fill="#655fa7"
     id="path3" />
  <path
     d="m 383.10959,77.131585 1.7837,-21.008033 h -0.79276 l -6.34204,19.62071 -27.94465,60.249458 h -4.95473 l -29.33197,-60.249458 -6.14386,-19.62071 h -0.79275 l 2.77464,21.008033 V 168.29852 H 297.09556 V 29.566226 h 12.48591 l 33.49394,68.177015 4.95473,16.251499 h 0.39637 l 4.75654,-16.449688 31.71024,-67.978826 h 13.08047 V 168.29852 h -14.86417 z m 38.2503,-1.98189 q 5.74748,-3.567402 13.87323,-5.549292 8.32394,-1.98189 17.44063,-1.98189 8.32394,0 13.27866,2.576457 5.15292,2.378268 7.92756,6.738426 2.97284,4.161969 3.76559,9.711261 0.99095,5.351103 0.99095,11.296773 0,11.89134 -0.59457,23.18811 -0.39638,11.29677 -0.39638,21.40441 0,7.53119 0.39638,14.07142 0.59457,6.34205 1.98189,12.08953 h -10.90039 l -3.36921,-11.69315 h -0.79276 q -2.97284,5.15291 -8.72032,8.91851 -5.74748,3.76559 -15.45874,3.76559 -10.7022,0 -17.63882,-7.333 -6.73842,-7.53118 -6.73842,-20.61165 0,-8.52213 2.77464,-14.26961 2.97284,-5.74748 8.12575,-9.31488 5.3511,-3.5674 12.48591,-4.95473 7.33299,-1.58551 16.25149,-1.58551 1.98189,0 3.96378,0 1.98189,0 4.16197,0.19819 0.59457,-6.14386 0.59457,-10.9004 0,-11.296768 -3.36921,-15.855115 -3.36922,-4.558347 -12.28772,-4.558347 -5.54929,0 -12.08953,1.783701 -6.54024,1.585512 -10.90039,4.161969 z m 43.00701,47.961735 q -1.98189,-0.19819 -3.96378,-0.19819 -1.98189,-0.19819 -3.96378,-0.19819 -4.75653,0 -9.31488,0.79276 -4.55835,0.79276 -8.12575,2.77465 -3.5674,1.98189 -5.74748,5.3511 -1.98189,3.36921 -1.98189,8.52213 0,7.92756 3.76559,12.28771 3.96378,4.36016 10.10764,4.36016 8.32394,0 12.88228,-3.96378 4.55835,-3.96378 6.34205,-8.72031 z m 35.67394,28.9356 q 3.96378,2.37826 9.31488,4.16196 5.54929,1.58552 11.29677,1.58552 6.54024,0 11.09859,-3.17103 4.55834,-3.36921 4.55834,-10.7022 0,-6.14386 -2.77464,-10.10764 -2.77465,-3.96378 -7.13481,-7.13481 -4.16197,-3.17102 -9.11669,-5.74748 -4.95473,-2.77464 -9.31488,-6.54023 -4.16197,-3.76559 -6.93662,-8.91851 -2.77465,-5.15291 -2.77465,-13.080472 0,-12.684096 6.73843,-19.026144 6.93662,-6.540237 19.42252,-6.540237 8.12575,0 14.07142,1.585512 5.94567,1.387323 10.30583,3.96378 l -3.76559,11.89134 q -3.76559,-1.98189 -8.72032,-3.171024 -4.95472,-1.387323 -10.10764,-1.387323 -7.1348,0 -10.50401,2.972835 -3.17103,2.972835 -3.17103,9.314883 0,4.954725 2.77465,8.52213 2.77464,3.36921 6.93661,6.34204 4.36016,2.77465 9.31489,5.74749 4.95472,2.97283 9.11669,7.1348 4.36016,3.96378 7.1348,9.71126 2.77465,5.54929 2.77465,14.07142 0,5.54929 -1.7837,10.50402 -1.7837,4.95472 -5.54929,8.72031 -3.56741,3.5674 -9.1167,5.74748 -5.3511,2.18008 -12.68409,2.18008 -8.72032,0 -15.06237,-1.7837 -6.34204,-1.58551 -10.7022,-4.36016 z m 119.30965,16.25149 v -60.24945 q 0,-13.873231 -3.36921,-21.008035 -3.17102,-7.332993 -12.88228,-7.332993 -6.93662,0 -12.6841,4.954725 -5.54929,4.954725 -7.53118,12.485907 V 168.29852 H 568.61411 V 29.566226 h 14.26961 v 48.952682 h 0.59456 q 3.96378,-5.152914 9.71127,-8.323938 5.94567,-3.369213 14.66598,-3.369213 6.54024,0 11.29677,1.783701 4.95473,1.783701 8.12575,6.143859 3.17103,4.360158 4.75654,11.693151 1.58551,7.134804 1.58551,17.837012 v 64.01504 z M 655.81736,69.204025 H 665.925 l 2.57645,10.504017 h 0.59457 q 2.77465,-5.747481 7.1348,-8.918505 4.55835,-3.369213 10.9004,-3.369213 4.55835,0 10.30583,1.783701 l -2.77465,14.467797 q -5.15291,-1.783701 -9.11669,-1.783701 -6.34205,0 -10.30583,3.765591 -3.96378,3.567402 -5.15292,9.711261 v 72.933547 h -14.2696 z m 49.94367,49.547245 q 0,-26.75551 9.1167,-39.241417 9.31488,-12.684096 26.35913,-12.684096 18.23339,0 26.75552,12.882285 8.72031,12.882285 8.72031,39.043228 0,26.95371 -9.31488,39.43961 -9.31488,12.48591 -26.16095,12.48591 -18.23339,0 -26.9537,-12.88228 -8.52213,-12.88229 -8.52213,-39.04324 z m 14.86418,0 q 0,8.72032 0.99094,15.85512 1.18914,7.13481 3.5674,12.28772 2.57646,5.15292 6.54024,8.12575 3.96378,2.77465 9.51307,2.77465 10.30583,0 15.45874,-9.1167 5.15292,-9.31488 5.15292,-29.92654 0,-8.52212 -1.18914,-15.65693 -0.99094,-7.332989 -3.5674,-12.485903 -2.37827,-5.152914 -6.34205,-7.92756 -3.96378,-2.972835 -9.51307,-2.972835 -10.10764,0 -15.45874,9.314883 -5.15291,9.314883 -5.15291,29.728345 z m 70.75328,0 q 0,-26.75551 9.1167,-39.241417 9.31488,-12.684096 26.35913,-12.684096 18.23339,0 26.75552,12.882285 8.72031,12.882285 8.72031,39.043228 0,26.95371 -9.31488,39.43961 -9.31488,12.48591 -26.16095,12.48591 -18.23338,0 -26.9537,-12.88228 -8.52213,-12.88229 -8.52213,-39.04324 z m 14.86418,0 q 0,8.72032 0.99094,15.85512 1.18914,7.13481 3.56741,12.28772 2.57645,5.15292 6.54023,8.12575 3.96378,2.77465 9.51307,2.77465 10.30583,0 15.45875,-9.1167 5.15291,-9.31488 5.15291,-29.92654 0,-8.52212 -1.18913,-15.65693 -0.99095,-7.332989 -3.56741,-12.485903 -2.37826,-5.152914 -6.34204,-7.92756 -3.96378,-2.972835 -9.51308,-2.972835 -10.10763,0 -15.45874,9.314883 -5.15291,9.314883 -5.15291,29.728345 z m 121.4897,49.54725 v -58.86213 q 0,-7.92756 -0.59457,-13.47685 -0.39637,-5.747481 -1.98189,-9.314883 -1.58551,-3.567402 -4.36015,-5.152914 -2.77465,-1.783701 -7.333,-1.783701 -6.73842,0 -11.49496,5.351103 -4.55835,5.152914 -6.34205,11.89134 v 71.348035 h -14.2696 V 69.204025 h 10.10763 l 2.57646,10.504017 h 0.59457 q 4.16197,-5.747481 9.90945,-9.314883 5.74748,-3.567402 14.66598,-3.567402 7.53119,0 12.28772,3.369213 4.95473,3.171024 7.72937,11.494962 3.5674,-6.936615 10.10764,-10.900395 6.73843,-3.96378 14.66599,-3.96378 6.54023,0 11.09858,1.783701 4.75654,1.585512 7.53118,5.94567 2.97284,4.161969 4.36016,11.296773 1.38732,6.936615 1.38732,17.638819 v 64.8078 h -14.26961 v -63.0241 q 0,-12.882282 -2.57645,-19.22433 -2.37827,-6.342048 -11.29677,-6.342048 -7.53119,0 -12.08953,4.756536 -4.36016,4.558347 -6.14386,12.485907 v 71.348035 z m 124.66103,-18.43157 q 3.7656,2.57645 10.5041,4.95472 6.9366,2.18008 15.6569,2.18008 11.0986,0 18.0352,-5.3511 6.9366,-5.54929 6.9366,-17.24245 0,-7.72937 -3.9638,-13.47685 -3.9638,-5.74748 -9.9094,-10.50401 -5.9457,-4.95473 -12.8823,-9.51308 -6.7384,-4.756531 -12.6841,-10.305823 -5.9457,-5.747481 -9.9095,-13.080474 -3.9637,-7.332993 -3.9637,-17.638821 0,-16.647875 9.9094,-24.575435 10.1076,-8.125749 26.161,-8.125749 9.9094,0 17.6388,1.783701 7.7293,1.783701 12.4859,4.558347 l -4.7566,13.080474 q -3.5674,-2.180079 -10.3058,-3.96378 -6.5402,-1.783701 -15.2605,-1.783701 -10.7022,0 -15.8552,5.351103 -5.1529,5.152914 -5.1529,13.080474 0,6.936614 3.9638,12.287717 3.9638,5.351103 9.9095,10.107639 5.9456,4.756536 12.6841,9.711261 6.9366,4.756536 12.8822,10.702207 5.9457,5.94567 9.9095,13.47685 3.9638,7.53118 3.9638,17.83701 0,17.44063 -10.3059,27.35008 -10.3058,9.90945 -29.1337,9.90945 -11.8914,0 -19.6207,-2.18008 -7.5312,-2.18008 -12.0896,-4.95472 z m 144.0833,11.69315 q -4.7565,4.36016 -12.0895,6.73842 -7.333,2.37827 -15.4588,2.37827 -9.3148,0 -16.2515,-3.5674 -6.7384,-3.76559 -11.2967,-10.50402 -4.3602,-6.93661 -6.5403,-16.44968 -1.9819,-9.51308 -1.9819,-21.40442 0,-25.368187 9.3149,-38.64685 9.3149,-13.278663 26.3592,-13.278663 5.5493,0 10.9004,1.387323 5.5493,1.387323 9.9094,5.549292 4.3602,4.161969 6.9366,11.693151 2.7747,7.531182 2.7747,19.620707 0,3.36922 -0.3964,7.333 -0.1982,3.76559 -0.5946,7.92756 h -50.34 q 0,8.52212 1.3873,15.45874 1.3874,6.93661 4.3602,11.89134 2.9728,4.75653 7.5312,7.53118 4.7565,2.57646 11.6931,2.57646 5.3511,0 10.5041,-1.98189 5.3511,-1.98189 8.1257,-4.75654 z m -11.0986,-53.11465 q 0.3964,-14.864178 -4.1619,-21.800793 -4.5584,-6.936615 -12.4859,-6.936615 -9.1167,0 -14.4678,6.936615 -5.3511,6.936615 -6.3421,21.800793 z m 33.6922,-39.241425 h 10.1077 l 2.5764,10.504017 h 0.5946 q 2.7746,-5.747481 7.1348,-8.918505 4.5583,-3.369213 10.9004,-3.369213 4.5583,0 10.3058,1.783701 l -2.7746,14.467797 q -5.153,-1.783701 -9.1167,-1.783701 -6.3421,0 -10.3059,3.765591 -3.9637,3.567402 -5.1529,9.711261 v 72.933547 h -14.2696 z m 78.2847,58.069375 3.9637,19.62071 h 0.3964 l 3.5674,-20.01709 17.4406,-57.672995 h 15.0624 L 1303.8952,170.4786 h -6.9366 L 1262.4737,69.204025 h 16.2515 z m 112.175,34.2867 q -4.7565,4.36016 -12.0895,6.73842 -7.333,2.37827 -15.4588,2.37827 -9.3149,0 -16.2515,-3.5674 -6.7384,-3.76559 -11.2967,-10.50402 -4.3602,-6.93661 -6.5403,-16.44968 -1.9819,-9.51308 -1.9819,-21.40442 0,-25.368187 9.3149,-38.64685 9.3149,-13.278663 26.3592,-13.278663 5.5492,0 10.9003,1.387323 5.5493,1.387323 9.9095,5.549292 4.3602,4.161969 6.9366,11.693151 2.7747,7.531182 2.7747,19.620707 0,3.36922 -0.3964,7.333 -0.1982,3.76559 -0.5946,7.92756 h -50.34 q 0,8.52212 1.3873,15.45874 1.3874,6.93661 4.3602,11.89134 2.9728,4.75653 7.5312,7.53118 4.7565,2.57646 11.6931,2.57646 5.3511,0 10.504,-1.98189 5.3511,-1.98189 8.1258,-4.75654 z m -11.0986,-53.11465 q 0.3964,-14.864178 -4.162,-21.800793 -4.5583,-6.936615 -12.4859,-6.936615 -9.1167,0 -14.4678,6.936615 -5.3511,6.936615 -6.342,21.800793 z m 33.6923,-39.241425 h 10.1076 l 2.5765,10.504017 h 0.5945 q 2.7747,-5.747481 7.1348,-8.918505 4.5584,-3.369213 10.9004,-3.369213 4.5584,0 10.3059,1.783701 l -2.7747,14.467797 q -5.1529,-1.783701 -9.1167,-1.783701 -6.342,0 -10.3058,3.765591 -3.9638,3.567402 -5.1529,9.711261 v 72.933547 h -14.2696 z"
     id="text3"
     style="font-size:198.189px;font-family:'PT Sans Narrow';-inkscape-font-specification:'PT Sans Narrow, Normal';fill:#000000;stroke:#000000;stroke-width:5"
     aria-label="Mashroom Server" />
</svg>
